<svg xmlns="http://www.w3.org/2000/svg" viewBox="0 0 216.57 214.45"><defs><style>.cls-1{fill-rule:evenodd;}</style></defs><g id="katman_2" data-name="katman 2"><g id="katman_1-2" data-name="katman 1"><path class="cls-1" d="M186.1,128.49a.59.59,0,0,1,0,.14c.22,1.9-3.58,2.65-4.78,2.94-4.38,1-8.8,1.92-13.18,3-1.57.38-3.08,1-5.1,1.67.8,1.1,1.13,1.9,1.72,2.3,4.17,2.76,8.33,5.54,12.64,8.07a7,7,0,0,0,4.21.65c7.07-1,14.11-2.23,21.16-3.32a56.1,56.1,0,0,1,6.46-.66c1.12,0,3.08-.3,4,.54,2.41,2.22-3.46,3.52-4.71,3.68-5.12.68-10.29,1-15.41,1.64-2.38.3-4.71,1-7.06,1.5-.09.4-.17.8-.26,1.21a46,46,0,0,0,3.9,3.38c5.08,3.5,10.26,6.87,15.36,10.34,1.21.82,3.11,1.95,3.46,3.51.83,3.74-4.24,1.17-5.4.39-4.71-3.14-9.33-6.43-14-9.6-1.48-1-3.08-1.8-5.44-3.16a58.18,58.18,0,0,0-.94,5.8c-.4,7.49-.66,15-1.05,22.46-.06,1.22.19,3.15-.89,4-2.4,2-3-2.09-3-3.49.05-4.66.37-9.32.42-14,.06-5,0-10-.17-15a9.16,9.16,0,0,0-4.9-7.67c-2.87-1.7-5.63-3.58-8.51-5.27a33.45,33.45,0,0,0-4.34-1.71,46.49,46.49,0,0,0-.27,5.78c.37,4,1,7.94,1.42,11.92.15,1.59.61,4-.77,5.27-2.35,2.07-3-2-3.2-3.43-.89-6.28-1.94-12.55-2.35-18.85-.26-4-2.05-6.32-5.37-8.22-7.06-4.06-8.1-3.59-9.14,4.68a57.63,57.63,0,0,1-1.34,7.88c-.94,3.49-2.85,4.73-6.36,3.86s-6.63-2.21-9.93-3.35c-4.76-1.65-5.88-.79-6.36,4.2-.55,5.65,1.12,9.81,6,13.19,5.19,3.58,9.78,8,14.54,12.19.95.83,2.21,2.12,2.35,3.46.4,3.76-4.62-.38-5.66-1.18-1.84-1.43-3.63-2.94-5.39-4.46-.8-.69-10-8.29-10.4-7.64-.51.83-1.17,1.46-1.26,2.15-.46,3.64-.79,7.29-1.14,10.94a11.69,11.69,0,0,0,4.83,10.9c4.07,3.18,8.2,6.3,12.16,9.61a19.63,19.63,0,0,1,4.33,4.54c2.13,3.68-2.52,2.35-4.29,1-3.68-2.87-7.26-5.87-11-8.7a56.32,56.32,0,0,0-5.1-3.06c-.08-.05-1.09,9-1.12,9.83a28.75,28.75,0,0,1-.79,7.52c-.36,1.16-1.16,3.13-2.62,2.38s-1.33-4-1.27-5.27c.15-3.16.64-6.3.73-9.46a43.72,43.72,0,0,0-.78-6.14,46.54,46.54,0,0,0-5.3,2.9c-5.09,3.77-10,7.73-15.15,11.47-1.18.86-2.73,2.12-4.28,2.08-5.28-.13,4.81-7.85,6-8.7,5.33-4,10.77-7.87,16.06-11.93,1.26-1,2.8-2.34,3-3.73a54.76,54.76,0,0,0-.07-17.56,41.5,41.5,0,0,0-4.45,2c-4.12,2.53-8.15,5.21-12.27,7.74-.92.57-3.62,1.48-4.64.95-2.18-1.11,1.52-3.7,2.52-4.39,5-3.39,10-6.69,15-9.94,4.61-3,7.15-10.94,4.94-15.81a2.8,2.8,0,0,0-3.73-1.58c-1.91.57-3.79,1.27-5.66,2-1.56.59-3,1.38-4.63,1.88-4.41,1.39-6.63.28-7.9-4.21-1-3.36-1.41-6.86-2.28-10.25-1-3.82-2.24-4.38-5.72-2.43-3.78,2.11-7.41,4.5-11.15,6.69a8.69,8.69,0,0,0-4.51,8.29c.1,6.51.07,13,0,19.51,0,1,.14,5.72-1.22,6-1.61.31-2.48-3.14-2.56-4.19-.23-3.21,0-6.45-.21-9.67-.26-3.94-.77-7.85-1.25-12.49a31.36,31.36,0,0,0-4.27,1.64c-4.28,2.59-8.43,5.39-12.76,7.89a8.59,8.59,0,0,0-4.7,8.16q.1,10.24-.06,20.5c0,1.62.08,3.28-.92,4.68-2.28,3.16-2.92-1.58-2.94-3.19-.09-5.5,0-11-.09-16.51,0-1.91-.44-3.82-.78-6.64A53.87,53.87,0,0,0,29.46,167c-5.37,3.35-10.64,6.87-16,10.2-1.4.88-4.7,2.66-6.16,1-1.24-1.41,1.55-2.84,2.56-3.51,5.72-3.75,11.5-7.39,17.22-11.13,1.48-1,2.82-2.17,5-3.83a59.57,59.57,0,0,0-5.53-3.3c-5.17-2.32-10.42-4.46-15.61-6.74C9.7,149.21,7.55,148,7,146.78c-1.23-3,3.31-1.89,4.67-1.31,7.06,3,14.19,5.86,21.1,9.18,3.27,1.58,5.93,1.45,8.87-.44,4.2-2.71,8.55-5.2,12.76-7.89,1.49-.95,2.77-2.21,5-4A53.3,53.3,0,0,0,54,139.73c-5.67-1.94-11.41-3.71-17.09-5.67-1.75-.6-3.88-1.14-4.6-3.08-1.17-3.18,2.76-2.17,4.33-1.65,7.59,2.54,15.26,4.88,22.71,7.78,4.39,1.71,8,1.28,11.68-1.44,3.43-2.53,7.09-4.74,11.38-7.58-1.78-1.49-2.77-2.5-3.92-3.26-2.65-1.73-5.52-3.15-8-5-4.06-3-4.15-6-.42-9.52,3.28-3.08,6.72-6,10.07-9s3.26-4.26-.8-6.58c-.29-.16-.59-.31-.89-.46-15.42-7.46-11-7.63-28.19-2.43-3.8,1.14-7.43,3-11.42,3.49-1.26.13-3.84.36-4.86-.48-2.19-1.81,2.45-3.32,3.73-3.74,4.6-1.47,9.27-2.76,13.88-4.22,1.66-.53,3.23-1.34,5.67-2.37-1.62-1.42-2.43-2.45-3.48-3-6.61-3.57-13.28-7-19.89-10.54a8.59,8.59,0,0,0-8.53-.16c-4.28,2.1-8.62,4.08-13,6-3.89,1.73-7.88,4-12.2,4.39-.73-2.21,1-3.72,2.74-4.58,5.09-2.5,10.22-4.92,15.31-7.4,1.44-.7,2.82-1.54,5.15-2.82a45.46,45.46,0,0,0-4.79-3.54c-4.71-2.5-9.53-4.79-14.27-7.25C2.6,54.72.7,53.84.65,51.3c2.08-1.25,3.67,0,5.23.71,5.12,2.43,10.19,5,15.31,7.4,1.28.6,2.67,1,4.65,1.66,0-2.36.14-4,0-5.55-.76-7.13-1.68-14.24-2.4-21.37-.11-1-.55-4.35.57-5,2.51-1.55,3.58,4.78,3.73,6,.6,4.6,1.24,9.2,1.77,13.82.45,4,.57,8,1.14,11.93.21,1.51.86,3.59,2,4.23,8.26,4.68,16.67,9.07,25.06,13.52.38.2,1,0,2.2,0a35.47,35.47,0,0,0,0-5.15C59,67.33,58,61.25,57.1,55.15c-.21-1.38-.4-4.69,1.2-5.45,3.45-1.62,3.86,10.28,4.14,11.95,1,5.57,1.87,11.14,2.61,16.74.42,3.19,1.7,5.16,4.55,6.52,3.15,1.5,6.09,3.47,9.24,5,4.6,2.21,6.32,1.13,6.73-4.09.17-2.32,0-4.67.21-7C86.21,73.06,88.2,71,93.93,71a103.67,103.67,0,0,1,12.41,1.13c5,.63,6.72-1,6.18-6.07-.35-3.29-2.39-5.4-4.75-7.33-4.65-3.8-9.34-7.55-14-11.39a10.4,10.4,0,0,1-3.33-4c-1.6-4.16,3.16-1.4,4.77-.13,3.93,3.1,7.73,6.35,11.67,9.44a43.27,43.27,0,0,0,4.8,2.77,44.05,44.05,0,0,0,.92-5.58c.1-4.84,0-9.68,0-14.51a10.19,10.19,0,0,0-4.55-8.91c-4.94-3.68-9.74-7.57-14.55-11.43a13.18,13.18,0,0,1-3.45-4c-1.49-3.28,3.06-1.55,4.41-.51,3.84,2.93,7.61,6,11.45,8.91,1.54,1.18,3.21,2.2,5.65,3.86a39,39,0,0,0,1-5.39c.12-4.16,0-8.34.11-12.5,0-1.25.08-4,1-5,1.47-1.47,2.75,2.85,2.8,4.23.13,4.16,0,8.34.17,12.5a59.32,59.32,0,0,0,1.06,6.63c2.25-1.56,3.77-2.41,5.06-3.54,4-3.51,7.9-7.16,11.9-10.68,1.23-1.08,2.58-2.37,4.31-2.38,3.38,0,2,2.52.4,3.89C133.69,16,128,21.16,122.09,26c-3.8,3.11-5.7,6.44-4.85,11.63.61,3.7-.2,7.62-.35,11.44-.11,2.91-.8,5.94,1.47,9.15,1.57-.94,3-1.69,4.27-2.58,4.67-3.21,9.28-6.51,14-9.68,1.61-1.08,3.35-2.29,5.4-1,.67,2.11-.86,2.84-2,3.68-6.37,4.55-12.72,9.14-19.19,13.57-2.55,1.75-4.1,3.83-4,7s1.36,4.21,4.49,3.49,6.41-1.86,9.66-2.57c7.2-1.56,9.38.2,9.66,7.73.12,3.33,0,6.67.1,10a36.71,36.71,0,0,0,.59,4.26c6,.1,12.6-4.78,13.44-10,.65-4.09.63-8.29,1.1-12.43.14-1.22,1-11.44,3.92-8.5,1.17,1.17.81,3,.74,4.49-.16,3.33-.63,6.64-.77,10a53.89,53.89,0,0,0,.51,6.13,38.12,38.12,0,0,0,5-1.83C170.54,77.09,175.7,74,181,71.18c3.32-1.78,4.65-4.42,4.75-8.11.21-7.66.61-15.31,1.06-23,.07-1.15.23-5.2,2.06-4.6s1.77,4.6,1.72,6.13c-.11,3.78-.34,7.55-.52,11.33S189,60.55,191,64.82a26.25,26.25,0,0,0,4-1.47c4.22-2.35,8.35-4.87,12.57-7.24,1.33-.74,3-1.94,4.62-1.5,3.46,1,.12,3.91-1.34,4.78-3.58,2.14-7.24,4.14-10.86,6.19-.73.41-1.47.8-2.18,1.24-4,2.45-3.88,3.74.27,6.19,5,3,10,5.93,15,9,1.06.66,2.85,1.48,3.32,2.75,1.31,3.48-4.38,1.42-5.5.77-5-2.94-10-6-15.05-8.94-1.72-1-3.51-1.92-5.26-2.88a5.88,5.88,0,0,0-6.18.14c-6,3.53-12.11,7-18.12,10.62A21.37,21.37,0,0,0,163.51,87a25.64,25.64,0,0,0,4,2.27c3.78,1.31,7.64,2.38,11.43,3.64,1.3.43,3.49,1.52,4.21,2.71,1.74,2.94-2.88,2.2-4.38,1.75-5.43-1.64-10.94-3.07-16.22-5.11-7-2.71-11.88,1-16.75,4.86-1.69,1.34-1.15,3,.39,4.24,1.83,1.43,3.81,2.68,5.7,4.05,5.3,3.81,5.65,6.65,1.31,11.42-2,2.22-4.21,4.27-6.25,6.47-1.56,1.69-1.39,3.4.53,4.65a42.39,42.39,0,0,0,7.33,4.24c1.54.59,3.58.28,5.3-.08,6.69-1.41,13.32-3.07,20-4.51C181.35,127.29,185.67,126.29,186.1,128.49Zm-75.75-22.55c.56-1.24,1-1.83,1.05-2.43.08-7.31.16-14.63.08-21.94a4.55,4.55,0,0,0-3.89-4.6,81.63,81.63,0,0,0-11.77-2c-4.17-.25-5.67,1.36-6,5.6-.28,3.31-.13,6.66-.47,10a6.14,6.14,0,0,0,3.41,6.59c4.51,2.5,9,5,13.56,7.46A25.51,25.51,0,0,0,110.35,105.94Zm26.32-21.77h-.07c0-1.66.12-3.33,0-5-.37-4.19-1.82-5.4-5.85-4.51-3.56.8-7,2-10.53,3.06a5,5,0,0,0-3.94,4.64c-.25,7.29-.42,14.6-.26,21.9.06,2.6,1.71,3.19,4.3,2,1.81-.83,3.51-1.9,5.25-2.88,10.52-5.89,10.91-6.53,11.13-18.73Zm-28.29,28.32c-.32-.89-.33-1.36-.55-1.48-5.74-3.37-11.46-6.75-17.27-10a4.24,4.24,0,0,0-5.11.78Q79.69,107,74,112.28c-1.38,1.29-2.07,3.18-.3,4.29,4.34,2.74,8.91,5.11,13.44,7.54a2.49,2.49,0,0,0,1.95,0A95.81,95.81,0,0,0,108.38,112.49Zm8.37,15.58h0c0,2.83,0,5.66,0,8.49a5.26,5.26,0,0,0,3.46,5c3.38,1.4,6.76,2.85,10.24,4s4.65.41,5.33-3.07a109.5,109.5,0,0,0,1.73-12.35,4.84,4.84,0,0,0-1.7-3.8c-4.91-3.13-9.94-6.08-15.09-8.78-2.42-1.27-3.72-.36-4,2.52C116.57,122.73,116.75,125.41,116.75,128.07Zm-5.4-10c-1.69.22-2.42.13-2.94.42-4.92,2.79-9.83,5.62-14.69,8.51-2,1.18-2.39,3.12-2,5.24.64,3.44,1.2,6.9,2.08,10.28s2.28,4.2,5.48,3.14c3.47-1.16,6.84-2.62,10.23-4a4.78,4.78,0,0,0,3-4.28C113.16,131.07,111.56,124.93,111.35,118.11ZM138,102.2a13.61,13.61,0,0,0-2.64.77c-3.94,2.12-7.95,4.16-11.73,6.55-2.59,1.63-2.46,3.22.29,4.86,4.42,2.64,9,5.05,13.45,7.59a4.12,4.12,0,0,0,5.42-.78c2.12-2.11,4.33-4.14,6.32-6.37,2.53-2.84,2.41-4.34-.54-6.58a75.6,75.6,0,0,0-7.06-4.67A20.49,20.49,0,0,0,138,102.2Z"/></g></g></svg>